<?xml version="1.0" encoding="UTF-8"?>
<svg width="20px" height="20px" viewBox="0 0 20 20" version="1.1" xmlns="http://www.w3.org/2000/svg" xmlns:xlink="http://www.w3.org/1999/xlink">
    <!-- Generator: Sketch 51.2 (57519) - http://www.bohemiancoding.com/sketch -->
    <title>火热</title>
    <desc>Created with Sketch.</desc>
    <defs>
        <linearGradient x1="10.3496287%" y1="19.909668%" x2="84.6978059%" y2="76.6050322%" id="linearGradient-1">
            <stop stop-color="#EF4766" offset="0%"></stop>
            <stop stop-color="#E2384E" offset="100%"></stop>
        </linearGradient>
    </defs>
    <g id="员工商城" stroke="none" stroke-width="1" fill="none" fill-rule="evenodd">
        <g id="员工主页面" transform="translate(-1491.000000, -1229.000000)">
            <g id="Group-3" transform="translate(1491.000000, 1229.000000)">
                <rect id="Rectangle-11" x="0" y="0" width="20" height="20"></rect>
                <path d="M7.20960742,1.09511195 C7.20960742,1.09511195 7.15040086,8.26850453 6.73601599,8.32683115 C6.32161078,8.38515777 4.5456175,6.46057974 3.36160841,6.57721294 C2.17759933,6.69384613 2,7.21874563 2,7.21874563 C2,7.21874563 3.36160841,8.79338398 3.65760051,11.0678816 C3.95359261,13.3423793 3.90746846,16.5954213 8.24193785,17.700821 C10.8986846,18.3783718 13.0627759,17.8336092 13.899216,16.7832691 C14.5456865,15.9714868 17.2736236,13.983892 16.9776315,10.0764293 C16.6816191,6.16896668 14.2544147,3.01966993 14.2544147,3.01966993 C14.2544147,3.01966993 14.3923192,4.13156372 13.899216,5.11920778 C13.4061129,6.10685184 13.0704056,6.40225312 13.0704056,6.40225312 C13.0704056,6.40225312 8.92639414,0.161986243 7.20960742,1.09511195 Z" id="Shape-Copy-4" fill="url(#linearGradient-1)"></path>
            </g>
        </g>
    </g>
</svg>