<?xml version="1.0" encoding="UTF-8"?>
<svg width="18px" height="18px" viewBox="0 0 18 18" version="1.1" xmlns="http://www.w3.org/2000/svg" xmlns:xlink="http://www.w3.org/1999/xlink">
    <!-- Generator: Sketch 51.2 (57519) - http://www.bohemiancoding.com/sketch -->
    <title>搜索框搜索图标2</title>
    <desc>Created with Sketch.</desc>
    <defs></defs>
    <g id="员工商城" stroke="none" stroke-width="1" fill="none" fill-rule="evenodd">
        <g id="员工主页面" transform="translate(-1222.000000, -64.000000)">
            <g id="Group-2" transform="translate(1222.000000, 64.000000)">
                <rect id="Rectangle-7" x="0" y="0" width="18" height="18"></rect>
                <path d="M12.5426771,12.7975392 C12.5554484,12.6936841 12.6008026,12.5929545 12.6790377,12.51184 C13.840126,11.3080184 14.5,9.70659366 14.5,8 C14.5,4.41014913 11.5898509,1.5 8,1.5 C4.41014913,1.5 1.5,4.41014913 1.5,8 C1.5,11.5898509 4.41014913,14.5 8,14.5 C8.98358854,14.5 9.93515238,14.2817055 10.8022549,13.8667275 C11.0513415,13.7475197 11.349903,13.8528072 11.4691109,14.1018937 C11.5883187,14.3509803 11.4830312,14.6495418 11.2339447,14.7687497 C10.23278,15.2478871 9.13379898,15.5 8,15.5 C3.85786438,15.5 0.5,12.1421356 0.5,8 C0.5,3.85786438 3.85786438,0.5 8,0.5 C12.1421356,0.5 15.5,3.85786438 15.5,8 C15.5,9.84409189 14.8309751,11.5839872 13.645153,12.9380463 L16.1819805,15.4748737 C16.3772427,15.6701359 16.3772427,15.9867184 16.1819805,16.1819805 C15.9867184,16.3772427 15.6701359,16.3772427 15.4748737,16.1819805 L12.6464466,13.3535534 C12.4961113,13.203218 12.4615214,12.9809676 12.5426771,12.7975392 Z" id="Combined-Shape" fill="#FFFFFF" fill-rule="nonzero"></path>
            </g>
        </g>
    </g>
</svg>