<?xml version="1.0" encoding="UTF-8"?>
<svg width="20px" height="20px" viewBox="0 0 20 20" version="1.1" xmlns="http://www.w3.org/2000/svg" xmlns:xlink="http://www.w3.org/1999/xlink">
    <!-- Generator: Sketch 51.2 (57519) - http://www.bohemiancoding.com/sketch -->
    <title>购物车</title>
    <desc>Created with Sketch.</desc>
    <defs></defs>
    <g id="员工商城" stroke="none" stroke-width="1" fill="none" fill-rule="evenodd">
        <g id="员工主页面" transform="translate(-1360.000000, -63.000000)">
            <rect fill="#F4F4F4" x="0" y="0" width="1920" height="1705"></rect>
            <rect id="Rectangle-3" fill="#FFFFFF" x="0" y="35" width="1920" height="122"></rect>
            <rect id="Combined-Shape" stroke="#DDDDDD" x="1310.5" y="55.5" width="184" height="35"></rect>
            <g id="Group" transform="translate(1360.000000, 63.000000)">
                <rect id="Rectangle-19" x="0" y="0" width="20" height="20"></rect>
                <path d="M6.5,6.5 C6.22385763,6.5 6,6.27614237 6,6 C6,5.72385763 6.22385763,5.5 6.5,5.5 L16.5,5.5 C16.800749,5.5 17.0334423,5.76359079 16.9961389,6.06201737 L16.5,10 C16.5,11.3807119 15.3807119,12.5 14,12.5 L7.5,12.5 C7.22385763,12.5 7,12.2761424 7,12 C7,11.7238576 7.22385763,11.5 7.5,11.5 L14,11.5 C14.8284271,11.5 15.5,10.8284271 15.5038611,9.93798263 L15.9336089,6.5 L6.5,6.5 Z M2.5,4.5 C2.22385763,4.5 2,4.27614237 2,4 C2,3.72385763 2.22385763,3.5 2.5,3.5 L3.19947651,3.5 C4.47887301,3.5 5.55180679,4.46592124 5.68574014,5.73828804 L6.40300902,12.5523424 C6.42979569,12.8068158 6.64438245,13 6.90026175,13 L16,13 C16.2761424,13 16.5,13.2238576 16.5,13.5 C16.5,13.7761424 16.2761424,14 16,14 L6.90026175,14 C6.13262385,14 5.48886357,13.4204473 5.40850357,12.6570272 L4.69123469,5.84297282 C4.61087468,5.07955275 3.96711441,4.5 3.19947651,4.5 L2.5,4.5 Z M7,17.5 C6.17157288,17.5 5.5,16.8284271 5.5,16 C5.5,15.1715729 6.17157288,14.5 7,14.5 C7.82842712,14.5 8.5,15.1715729 8.5,16 C8.5,16.8284271 7.82842712,17.5 7,17.5 Z M7,16.5 C7.27614237,16.5 7.5,16.2761424 7.5,16 C7.5,15.7238576 7.27614237,15.5 7,15.5 C6.72385763,15.5 6.5,15.7238576 6.5,16 C6.5,16.2761424 6.72385763,16.5 7,16.5 Z M15,17.5 C14.1715729,17.5 13.5,16.8284271 13.5,16 C13.5,15.1715729 14.1715729,14.5 15,14.5 C15.8284271,14.5 16.5,15.1715729 16.5,16 C16.5,16.8284271 15.8284271,17.5 15,17.5 Z M15,16.5 C15.2761424,16.5 15.5,16.2761424 15.5,16 C15.5,15.7238576 15.2761424,15.5 15,15.5 C14.7238576,15.5 14.5,15.7238576 14.5,16 C14.5,16.2761424 14.7238576,16.5 15,16.5 Z" id="Combined-Shape" fill="#333333" fill-rule="nonzero"></path>
            </g>
        </g>
    </g>
</svg>